{"glyphs":{"\u0000":{"ha":417,"x_min":0,"x_max":0,"o":""},"\n":{"ha":0,"x_min":0,"x_max":0,"o":""},"\r":{"ha":417,"x_min":0,"x_max":0,"o":""}," ":{"ha":663,"x_min":0,"x_max":0,"o":""},"!":{"ha":1193,"x_min":514,"x_max":679,"o":"m 514 890 q 538 948 514 924 q 596 972 563 972 l 678 972 l 678 343 q 653 285 678 308 q 596 261 629 261 l 514 261 l 514 890 m 593 0 l 517 0 l 517 160 l 675 160 l 675 82 q 651 24 675 49 q 593 0 628 0 z "},".":{"ha":829,"x_min":333,"x_max":493,"o":"m 333 160 l 493 160 l 493 82 q 469 24 493 49 q 411 0 444 0 l 333 0 l 333 160 z "},"?":{"ha":1956,"x_min":513,"x_max":1439,"o":"m 1156 972 q 1356 890 1272 972 q 1439 690 1439 807 q 1356 490 1439 572 q 1156 407 1272 407 l 814 407 l 797 406 q 724 381 756 406 q 679 318 692 357 q 649 277 671 293 q 600 261 628 261 l 514 261 l 514 282 q 590 474 514 393 q 775 564 665 556 l 779 565 l 797 565 l 1156 567 q 1243 603 1207 567 q 1279 690 1279 639 q 1243 776 1279 740 q 1156 813 1207 813 l 633 813 q 575 837 599 813 q 551 894 551 861 l 551 972 l 1147 972 q 1156 972 1151 972 m 514 0 l 514 160 l 674 160 l 674 82 q 649 24 674 49 q 592 0 625 0 l 514 0 z "},"A":{"ha":2150,"x_min":501,"x_max":1653,"o":"m 1157 972 l 1163 960 l 1651 0 l 901 0 l 982 160 l 1389 160 l 1076 772 l 683 0 l 501 0 l 504 7 l 963 904 q 1008 954 978 936 q 1072 972 1038 972 l 1157 972 z "},"B":{"ha":2035,"x_min":513,"x_max":1515,"o":"m 1399 511 q 1483 410 1453 471 q 1514 282 1514 350 q 1433 83 1514 167 q 1235 -1 1351 0 l 1228 0 q 536 0 1163 0 l 514 0 l 514 78 q 538 135 514 111 q 596 160 563 160 l 1242 160 q 1322 199 1289 163 q 1354 282 1354 235 q 1318 369 1354 333 q 1232 406 1282 406 l 1124 406 q 1019 407 1035 406 l 596 407 q 538 431 563 407 q 514 489 514 454 l 514 565 l 1179 567 q 1267 603 1231 567 q 1303 689 1303 639 q 1286 751 1303 722 q 1241 796 1269 779 q 1179 813 1213 813 l 596 813 q 538 837 563 813 q 514 894 514 861 l 514 972 l 1171 972 q 1179 972 1174 972 q 1379 890 1296 972 q 1463 689 1463 807 q 1399 511 1463 589 z "},"C":{"ha":1940,"x_min":514,"x_max":1425,"o":"m 1004 972 q 1403 972 1056 972 l 1424 972 l 1424 894 q 1400 837 1424 861 q 1342 813 1376 813 l 1000 813 q 769 717 865 813 q 674 486 674 621 q 769 256 674 351 q 1000 160 865 160 l 1342 160 q 1400 135 1376 160 q 1424 78 1424 111 l 1424 0 l 1403 0 q 1004 0 1057 0 l 1000 0 l 996 0 l 983 0 q 650 148 786 7 q 514 486 514 289 q 649 823 514 682 q 979 972 783 964 l 983 972 l 1004 972 z "},"D":{"ha":1921,"x_min":513,"x_max":1444,"o":"m 957 972 q 1299 832 1157 972 q 1406 674 1369 763 q 1443 486 1443 585 q 1378 242 1443 354 q 1201 65 1314 131 q 957 0 1089 0 l 940 0 q 715 0 878 0 l 513 0 l 513 78 q 537 135 513 111 q 594 160 561 160 l 957 160 q 1189 256 1093 160 q 1285 486 1285 351 q 1258 613 1285 553 q 1189 716 1232 672 q 1085 786 1146 760 q 958 813 1025 813 l 957 813 l 594 813 q 537 837 561 813 q 513 894 513 861 l 513 972 l 957 972 z "},"E":{"ha":1957,"x_min":514,"x_max":1438,"o":"m 1424 894 q 1400 837 1424 861 q 1342 813 1376 813 l 514 813 l 514 972 l 1424 972 l 1424 894 m 1356 160 q 1397 149 1378 160 q 1426 119 1415 138 q 1438 78 1438 100 l 1438 0 l 514 0 l 514 160 l 1356 160 m 1343 489 q 1336 457 1343 472 q 1319 431 1329 442 q 1293 413 1308 419 q 1261 407 1278 407 l 514 407 l 514 565 l 1343 565 l 1343 489 z "},"F":{"ha":1943,"x_min":514,"x_max":1425,"o":"m 514 0 l 514 565 l 1343 565 l 1343 489 q 1319 431 1343 454 q 1261 407 1294 407 l 678 407 l 678 0 l 514 0 m 514 890 q 538 948 514 924 q 596 972 563 972 l 1424 972 l 1424 894 q 1400 837 1424 861 q 1342 813 1376 813 l 514 813 l 514 890 z "},"G":{"ha":1988,"x_min":514,"x_max":1536,"o":"m 1371 368 q 1377 400 1371 385 q 1394 426 1383 415 q 1421 443 1406 436 q 1453 450 1436 450 l 1535 450 l 1535 0 l 1392 0 q 1004 0 1056 0 l 1000 0 l 996 0 l 983 0 q 650 148 786 7 q 514 486 514 289 q 579 730 514 618 q 756 907 644 842 q 1000 972 868 972 l 1018 972 q 1457 972 1118 972 l 1478 972 l 1478 894 q 1454 837 1478 861 q 1396 813 1431 813 l 1000 813 q 769 717 865 813 q 674 486 674 621 q 769 256 674 351 q 1000 160 865 160 l 1371 160 l 1371 368 z "},"H":{"ha":1849,"x_min":447,"x_max":1329,"o":"m 529 972 q 587 948 563 972 q 611 890 611 924 l 611 0 l 529 0 q 472 24 496 0 q 447 82 447 49 l 447 972 l 529 972 m 1246 972 q 1303 948 1279 972 q 1328 890 1328 924 l 1328 0 l 1246 0 q 1188 24 1213 0 q 1164 82 1164 49 l 1164 464 l 889 464 q 831 488 856 464 q 807 547 807 513 l 807 624 l 1164 624 l 1164 972 l 1246 972 z "},"I":{"ha":1196,"x_min":514,"x_max":679,"o":"m 596 972 q 653 948 629 972 q 678 890 678 924 l 678 0 l 596 0 q 538 24 563 0 q 514 82 514 49 l 514 972 l 596 972 z "},"J":{"ha":1540,"x_min":513,"x_max":1022,"o":"m 857 890 q 881 948 857 924 q 940 972 906 972 l 1022 972 l 1022 486 q 957 242 1022 354 q 779 65 892 131 q 536 0 667 0 q 514 33 514 0 l 514 83 q 519 113 514 99 q 534 137 525 126 q 556 154 543 147 q 585 164 569 161 q 592 164 589 164 q 653 182 624 169 q 801 301 746 218 q 857 486 857 385 l 857 890 z "},"K":{"ha":1928,"x_min":511,"x_max":1410,"o":"m 1204 972 l 1410 972 l 779 486 l 1410 0 l 1206 0 q 1093 39 1143 0 l 513 486 l 1092 933 q 1204 972 1142 972 z "},"L":{"ha":1785,"x_min":514,"x_max":1268,"o":"m 1185 160 q 1217 153 1201 160 q 1243 135 1232 146 q 1261 109 1254 124 q 1268 78 1268 94 l 1268 0 l 978 0 q 743 73 850 7 q 575 249 636 139 q 514 486 514 358 l 514 972 l 596 972 q 653 948 629 972 q 678 890 678 924 l 678 486 q 772 254 678 349 q 1000 160 865 160 l 1185 160 z "},"M":{"ha":1904,"x_min":276,"x_max":1400,"o":"m 1181 915 q 1315 972 1236 972 l 1400 972 l 1400 968 l 1397 0 l 1315 0 q 1258 24 1282 0 q 1233 82 1233 49 l 1233 743 l 968 464 q 835 407 914 407 l 771 407 q 740 431 764 407 q 579 599 717 454 l 276 919 l 276 972 l 361 972 q 496 915 440 972 l 838 553 l 1181 915 z "},"N":{"ha":1913,"x_min":514,"x_max":1396,"o":"m 1231 890 q 1255 948 1231 924 q 1313 972 1279 972 l 1394 972 l 1394 0 l 1221 0 l 1219 1 l 678 732 l 678 489 q 653 431 678 454 q 596 407 629 407 l 514 407 l 514 972 l 688 972 l 689 971 l 1231 240 l 1231 890 z "},"O":{"ha":1893,"x_min":458,"x_max":1432,"o":"m 944 972 q 1188 907 1076 972 q 1365 730 1300 842 q 1431 486 1431 618 q 1365 242 1431 354 q 1188 65 1300 131 q 944 0 1076 0 q 701 65 813 0 q 524 242 589 131 q 458 486 458 354 q 497 675 458 585 q 601 831 536 765 q 756 934 665 896 q 944 972 846 972 m 714 256 q 762 208 714 256 q 944 160 810 160 q 1175 256 1079 160 q 1271 486 1271 351 q 1175 717 1271 621 q 944 813 1079 813 q 714 717 810 813 q 618 486 618 621 q 714 256 618 351 z "},"P":{"ha":1964,"x_min":514,"x_max":1446,"o":"m 1161 972 q 1362 890 1279 972 q 1444 690 1444 807 q 1362 490 1444 572 q 1161 407 1279 407 l 678 407 l 678 82 q 653 24 678 49 q 596 0 629 0 l 514 0 l 514 565 l 1161 567 q 1249 603 1213 567 q 1285 689 1285 639 q 1268 751 1285 722 q 1223 796 1251 779 q 1161 813 1194 813 l 618 813 q 544 843 575 813 q 514 917 514 874 l 514 972 l 1153 972 q 1161 972 1156 972 z "},"Q":{"ha":2006,"x_min":513,"x_max":1488,"o":"m 1231 717 q 1183 765 1231 717 q 1000 813 1135 813 q 769 717 865 813 q 674 486 674 621 q 769 256 674 351 q 1000 160 865 160 l 1406 160 q 1437 153 1422 160 q 1463 135 1451 146 q 1480 110 1474 125 q 1486 78 1486 94 l 1486 0 l 1000 0 q 811 38 901 0 q 656 142 721 76 q 553 297 592 207 q 514 486 514 388 q 553 675 514 585 q 656 831 592 765 q 811 934 721 896 q 1000 972 901 972 q 1189 934 1099 972 q 1344 831 1279 896 q 1448 675 1410 765 q 1486 486 1486 585 q 1482 424 1486 456 l 1481 406 l 1408 406 q 1351 429 1375 406 q 1326 486 1326 453 q 1231 717 1326 621 z "},"R":{"ha":1981,"x_min":514,"x_max":1463,"o":"m 1444 689 q 1390 523 1444 597 q 1249 419 1335 449 l 1463 0 l 1343 0 q 1289 15 1314 0 q 1251 57 1264 31 l 1074 407 l 678 407 l 678 83 q 653 24 678 49 q 596 0 629 0 l 514 0 l 514 565 l 1161 567 q 1249 603 1213 567 q 1285 689 1285 639 q 1268 751 1285 722 q 1223 796 1251 779 q 1161 813 1194 813 l 597 813 q 555 824 574 813 q 525 854 536 835 q 514 896 514 874 l 514 972 l 1153 972 q 1161 972 1156 972 q 1362 890 1279 972 q 1444 689 1444 807 z "},"S":{"ha":1956,"x_min":513,"x_max":1438,"o":"m 797 407 q 687 429 739 407 q 597 490 635 451 q 536 580 558 528 q 514 689 514 632 q 597 890 514 807 q 797 972 679 972 q 807 972 803 972 l 1399 972 l 1399 894 q 1375 837 1399 861 q 1317 813 1351 813 l 797 813 q 735 796 764 813 q 690 751 707 779 q 674 689 674 722 q 710 603 674 639 q 797 567 746 567 l 818 567 l 818 563 q 863 534 846 556 q 881 483 881 513 l 881 407 l 797 407 m 1154 565 q 1353 482 1271 565 q 1436 282 1436 399 q 1401 145 1436 208 q 1306 43 1367 82 q 1171 0 1244 4 q 1157 -1 1164 -1 l 1154 -1 l 1153 -1 l 1149 0 q 549 0 1092 0 l 526 0 l 526 78 q 551 135 526 111 q 608 160 575 160 l 1163 160 q 1244 198 1211 163 q 1276 282 1276 233 q 1240 369 1276 333 q 1153 406 1204 406 l 1150 406 q 1093 430 1117 406 q 1069 488 1069 454 l 1069 567 l 1154 565 z "},"T":{"ha":1911,"x_min":514,"x_max":1396,"o":"m 1313 972 q 1370 948 1346 972 q 1394 890 1394 924 l 1394 813 l 596 813 q 538 837 563 813 q 514 894 514 861 l 514 972 l 1313 972 m 954 624 q 995 613 976 624 q 1025 583 1014 601 q 1036 542 1036 564 l 1036 0 l 954 0 q 897 24 921 0 q 872 82 872 49 l 872 624 l 954 624 z "},"U":{"ha":2006,"x_min":514,"x_max":1488,"o":"m 1326 972 l 1486 972 l 1486 472 q 1384 174 1486 306 q 1122 1 1282 42 l 1094 -6 l 1094 94 q 1108 144 1094 121 q 1147 179 1122 168 q 1242 252 1201 207 q 1305 353 1283 297 q 1326 472 1326 410 l 1326 972 m 853 179 q 892 144 878 168 q 906 93 906 121 l 906 -6 l 879 0 q 616 174 718 42 q 514 472 514 306 l 514 478 l 514 972 l 674 972 l 674 472 q 722 300 674 379 q 853 179 769 221 z "},"V":{"ha":2117,"x_min":514,"x_max":1665,"o":"m 1453 913 q 1476 944 1461 931 q 1510 965 1492 958 q 1550 972 1529 972 l 1664 972 l 1661 965 l 1169 0 l 988 0 l 990 7 l 1453 913 m 726 913 l 958 457 q 958 358 983 407 l 893 229 l 514 972 l 629 972 q 686 956 660 972 q 726 913 713 940 z "},"W":{"ha":2103,"x_min":514,"x_max":1651,"o":"m 1488 890 q 1498 931 1488 913 q 1528 961 1508 950 q 1569 972 1547 972 l 1651 972 l 1651 0 l 1483 0 l 1476 13 l 1089 772 l 696 0 l 514 0 l 531 32 l 531 972 l 613 972 q 670 948 646 972 q 694 890 694 924 l 694 353 l 983 921 q 1067 972 1010 972 l 1169 972 l 1175 960 l 1488 349 l 1488 890 z "},"X":{"ha":2208,"x_min":496,"x_max":1710,"o":"m 1710 972 l 1214 486 l 1710 0 l 1542 0 q 1447 39 1486 0 l 1103 376 l 758 39 q 664 0 719 0 l 496 0 l 756 256 q 1447 933 907 403 q 1540 972 1486 972 l 1710 972 m 918 671 q 860 647 894 647 q 803 671 826 647 l 496 972 l 665 972 q 758 933 719 972 l 972 724 l 918 671 z "},"Y":{"ha":2114,"x_min":447,"x_max":1661,"o":"m 1399 935 q 1490 972 1436 972 l 1661 972 l 1136 457 l 1136 78 q 1113 23 1136 46 q 1058 0 1090 0 l 972 0 l 972 457 l 943 486 l 1399 935 m 617 972 q 710 935 671 972 l 926 721 l 879 674 q 815 647 853 647 q 751 674 778 647 l 447 972 l 617 972 z "},"Z":{"ha":1911,"x_min":513,"x_max":1394,"o":"m 1311 972 q 1369 949 1346 972 q 1393 890 1393 925 l 1393 813 l 594 813 q 537 837 561 813 q 513 894 513 861 l 513 972 l 1311 972 m 1311 160 q 1369 135 1346 160 q 1393 78 1393 111 l 1393 0 l 513 0 l 513 74 q 563 199 513 146 l 932 578 q 1050 626 981 626 l 1200 626 l 1164 590 q 743 160 1110 535 l 1311 160 z "}," ":{"ha":846,"x_min":0,"x_max":0,"o":""},"­":{"ha":417,"x_min":0,"x_max":0,"o":""}}}
